# Blender 4.1.1
# www.blender.org
mtllib asteroid.mtl
o Icosphere
v 0.058635 0.038117 0.798528
v 0.554432 0.502849 0.401811
v -0.267484 1.275719 0.439350
v -0.782389 -0.047803 0.174726
v -0.491419 -1.470985 -0.042133
v 0.396539 -1.098258 0.230356
v 0.285292 1.275719 -0.455089
v -0.723607 0.525725 -0.447220
v -0.723607 -0.525725 -0.447220
v -0.129547 -1.580705 -0.701351
v 0.894426 0.000000 -0.447216
v -0.327068 -0.572532 -1.216863
v -0.162456 0.499995 0.850654
v 0.425323 0.309011 0.850654
v 0.262869 0.809012 0.525738
v 0.681473 -0.022876 0.480327
v 0.098254 -0.881544 0.633791
v -0.525730 0.000000 0.850652
v -0.688189 0.499997 0.525736
v -0.162456 -0.499995 0.850654
v -0.688189 -0.499997 0.525736
v -0.064199 -1.381544 0.308875
v 0.781883 0.286137 -0.045409
v 0.951058 -0.309013 0.000000
v 0.008904 1.425070 -0.007870
v 0.587786 0.809017 0.000000
v -0.839021 0.261209 -0.272490
v -0.578881 1.234087 -0.007870
v -0.587786 -0.809017 0.000000
v -0.839021 -0.356816 -0.272490
v 0.260717 -1.381549 -0.216863
v -0.327068 -1.572532 -0.216863
v 0.688189 0.499997 -0.525736
v -0.253965 1.234082 -0.533607
v -0.850648 0.000000 -0.525736
v -0.589937 -1.381544 -0.742601
v 0.240550 -1.283862 -0.822334
v 0.162456 0.499995 -0.850654
v 0.525730 0.000000 -0.850652
v -0.425323 0.309011 -0.850654
v -0.752391 -0.881544 -1.067517
v -0.164613 -1.072528 -1.067518
vn -0.0430 -0.1323 0.9903
vn 0.8880 0.2702 0.3721
vn 0.0930 -0.0676 0.9934
vn 0.0847 0.0615 0.9945
vn 0.5151 -0.1296 0.8473
vn 0.9050 0.2680 0.3304
vn 0.5059 0.6744 0.5378
vn -0.9839 0.0619 0.1674
vn -0.9848 -0.1365 -0.1078
vn 0.5346 -0.7779 0.3304
vn 0.9001 0.3073 0.3089
vn -0.3066 0.9435 0.1256
vn -0.9921 -0.0000 0.1256
vn -0.7458 -0.0664 -0.6629
vn 0.8276 -0.5526 0.0987
vn 0.4961 0.3308 -0.8028
vn -0.6529 0.3510 -0.6712
vn -0.9641 -0.2084 0.1643
vn -0.1813 -0.5831 -0.7919
vn 0.7266 -0.1761 -0.6641
vn 0.4563 -0.1153 -0.8823
vn 0.4661 -0.1229 -0.8762
vn 0.1909 -0.5651 -0.8026
vn -0.1024 -0.3151 -0.9435
vn -0.1876 -0.5773 -0.7947
vn -0.9645 -0.2071 0.1636
vn -0.4955 0.2855 -0.8203
vn -0.7091 0.3101 -0.6332
vn -0.7002 0.2680 -0.6617
vn -0.1200 0.3694 -0.9215
vn -0.1106 0.3405 -0.9337
vn 0.0960 0.4401 -0.8928
vn 0.2719 0.1975 -0.9419
vn 0.4911 0.3568 -0.7947
vn 0.7240 0.1947 -0.6617
vn 0.8727 -0.3430 -0.3475
vn 0.8457 -0.5216 -0.1123
vn 0.5890 -0.7945 -0.1478
vn -0.3825 -0.9132 -0.1405
vn -0.8743 -0.3832 0.2980
vn -0.9649 -0.2067 0.1621
vn -0.9025 -0.2684 -0.3367
vn -0.9989 -0.0000 0.0459
vn -0.9387 0.2605 -0.2256
vn -0.7609 0.4471 -0.4702
vn -0.3035 0.9342 -0.1876
vn -0.0247 0.9435 -0.3304
vn 0.8784 0.4659 -0.1061
vn 0.9364 0.3499 -0.0269
vn 0.9250 0.3798 -0.0114
vn 0.3059 -0.9416 0.1406
vn 0.3035 -0.9342 0.1876
vn -0.1372 -0.9070 0.3981
vn -0.8546 -0.5150 -0.0667
vn -0.8925 -0.4420 0.0894
vn -0.9824 -0.0704 0.1730
vn -0.9394 0.2975 -0.1702
vn -0.9670 0.2274 0.1147
vn -0.7485 0.4592 0.4784
vn 0.7103 0.6702 0.2152
vn 0.6623 0.6276 0.4093
vn 0.7303 0.5128 0.4513
vn 0.9581 0.2777 0.0706
vn 0.8986 0.2811 0.3369
vn 0.7241 -0.3323 0.6044
vn 0.4713 -0.5831 0.6617
vn -0.0684 -0.5279 0.8466
vn -0.4868 -0.4961 0.7189
vn -0.4500 -0.5170 0.7281
vn -0.4911 -0.3568 0.7947
vn -0.9339 0.0765 0.3492
vn -0.9310 -0.0696 0.3584
vn -0.4911 0.3568 0.7947
vn -0.4915 0.3551 0.7952
vn 0.6646 -0.3317 0.6696
vn 0.6343 -0.3037 0.7109
vn -0.0094 -0.1767 0.9842
vn 0.2862 0.4788 0.8300
vn 0.1876 0.5773 0.7947
vn 0.7332 0.5217 0.4362
vt 0.181819 0.000000
vt 0.227273 0.078731
vt 0.136365 0.078731
vt 0.272728 0.157461
vt 0.318182 0.078731
vt 0.363637 0.157461
vt 0.909091 0.000000
vt 0.954545 0.078731
vt 0.863636 0.078731
vt 0.727273 0.000000
vt 0.772727 0.078731
vt 0.681818 0.078731
vt 0.545455 0.000000
vt 0.590909 0.078731
vt 0.500000 0.078731
vt 0.318182 0.236191
vt 0.090910 0.157461
vt 0.181819 0.157461
vt 0.136365 0.236191
vt 0.818182 0.157461
vt 0.909091 0.157461
vt 0.863636 0.236191
vt 0.636364 0.157461
vt 0.727273 0.157461
vt 0.681818 0.236191
vt 0.454546 0.157461
vt 0.545455 0.157461
vt 0.500000 0.236191
vt 0.227273 0.236191
vt 0.045455 0.236191
vt 0.772727 0.236191
vt 0.590909 0.236191
vt 0.409092 0.236191
vt 0.181819 0.314921
vt 0.272728 0.314921
vt 0.227273 0.393651
vt 0.000000 0.314921
vt 0.090910 0.314921
vt 0.045455 0.393651
vt 0.727273 0.314921
vt 0.818182 0.314921
vt 0.772727 0.393651
vt 0.545455 0.314921
vt 0.636364 0.314921
vt 0.590909 0.393651
vt 0.363637 0.314921
vt 0.454546 0.314921
vt 0.409092 0.393651
vt 0.500000 0.393651
vt 0.454546 0.472382
vt 0.681818 0.393651
vt 0.636364 0.472382
vt 0.863636 0.393651
vt 0.818182 0.472382
vt 0.909091 0.314921
vt 0.136365 0.393651
vt 0.090910 0.472382
vt 0.318182 0.393651
vt 0.272728 0.472382
vt 0.954545 0.236191
vt 1.000000 0.157461
vt 0.409092 0.078731
vt 0.363637 0.000000
s 0
f 1/1/1 14/2/1 13/3/1
f 2/4/2 14/5/2 16/6/2
f 1/7/3 13/8/3 18/9/3
f 1/10/4 18/11/4 20/12/4
f 1/13/5 20/14/5 17/15/5
f 2/4/6 16/6/6 23/16/6
f 3/17/7 15/18/7 25/19/7
f 4/20/8 19/21/8 27/22/8
f 5/23/9 21/24/9 29/25/9
f 6/26/10 22/27/10 31/28/10
f 2/4/11 23/16/11 26/29/11
f 3/17/12 25/19/12 28/30/12
f 4/20/13 27/22/13 30/31/13
f 5/23/14 29/25/14 32/32/14
f 6/26/15 31/28/15 24/33/15
f 7/34/16 33/35/16 38/36/16
f 8/37/17 34/38/17 40/39/17
f 9/40/18 35/41/18 41/42/18
f 10/43/19 36/44/19 42/45/19
f 11/46/20 37/47/20 39/48/20
f 39/48/21 42/49/21 12/50/21
f 39/48/22 37/47/22 42/49/22
f 37/47/23 10/43/23 42/49/23
f 42/45/24 41/51/24 12/52/24
f 42/45/25 36/44/25 41/51/25
f 36/44/26 9/40/26 41/51/26
f 41/42/27 40/53/27 12/54/27
f 41/42/28 35/41/28 40/53/28
f 35/41/29 8/55/29 40/53/29
f 40/39/30 38/56/30 12/57/30
f 40/39/31 34/38/31 38/56/31
f 34/38/32 7/34/32 38/56/32
f 38/36/33 39/58/33 12/59/33
f 38/36/34 33/35/34 39/58/34
f 33/35/35 11/46/35 39/58/35
f 24/33/36 37/47/36 11/46/36
f 24/33/37 31/28/37 37/47/37
f 31/28/38 10/43/38 37/47/38
f 32/32/39 36/44/39 10/43/39
f 32/32/40 29/25/40 36/44/40
f 29/25/41 9/40/41 36/44/41
f 30/31/42 35/41/42 9/40/42
f 30/31/43 27/22/43 35/41/43
f 27/22/44 8/55/44 35/41/44
f 28/30/45 34/38/45 8/37/45
f 28/30/46 25/19/46 34/38/46
f 25/19/47 7/34/47 34/38/47
f 26/29/48 33/35/48 7/34/48
f 26/29/49 23/16/49 33/35/49
f 23/16/50 11/46/50 33/35/50
f 31/28/51 32/32/51 10/43/51
f 31/28/52 22/27/52 32/32/52
f 22/27/53 5/23/53 32/32/53
f 29/25/54 30/31/54 9/40/54
f 29/25/55 21/24/55 30/31/55
f 21/24/56 4/20/56 30/31/56
f 27/22/57 28/60/57 8/55/57
f 27/22/58 19/21/58 28/60/58
f 19/21/59 3/61/59 28/60/59
f 25/19/60 26/29/60 7/34/60
f 25/19/61 15/18/61 26/29/61
f 15/18/62 2/4/62 26/29/62
f 23/16/63 24/33/63 11/46/63
f 23/16/64 16/6/64 24/33/64
f 16/6/65 6/26/65 24/33/65
f 17/15/66 22/27/66 6/26/66
f 17/15/67 20/14/67 22/27/67
f 20/14/68 5/23/68 22/27/68
f 20/12/69 21/24/69 5/23/69
f 20/12/70 18/11/70 21/24/70
f 18/11/71 4/20/71 21/24/71
f 18/9/72 19/21/72 4/20/72
f 18/9/73 13/8/73 19/21/73
f 13/8/74 3/61/74 19/21/74
f 16/6/75 17/62/75 6/26/75
f 16/6/76 14/5/76 17/62/76
f 14/5/77 1/63/77 17/62/77
f 13/3/78 15/18/78 3/17/78
f 13/3/79 14/2/79 15/18/79
f 14/2/80 2/4/80 15/18/80
