# Blender 4.1.1
# www.blender.org
mtllib rocket.mtl
o Cylinder
v 0.000000 1.000000 -4.294559
v 0.000000 1.000000 5.000000
v 0.195090 0.980785 -4.294559
v 0.195090 0.980785 5.000000
v 0.382683 0.923880 -4.294559
v 0.382683 0.923879 5.000000
v 0.555570 0.831470 -4.294559
v 0.555570 0.831470 5.000000
v 0.707107 0.707107 -4.294559
v 0.707107 0.707107 5.000000
v 0.831470 0.555570 -4.294559
v 0.831470 0.555570 5.000000
v 0.923880 0.382683 -4.294559
v 0.923880 0.382683 5.000000
v 0.980785 0.195090 -4.294559
v 0.980785 0.195090 5.000000
v 1.000000 0.000000 -4.294559
v 1.000000 -0.000000 5.000000
v 0.980785 -0.195090 -4.294559
v 0.980785 -0.195090 5.000000
v 0.923880 -0.382683 -4.294559
v 0.923880 -0.382683 5.000000
v 0.831470 -0.555570 -4.294559
v 0.831470 -0.555570 5.000000
v 0.707107 -0.707107 -4.294559
v 0.707107 -0.707107 5.000000
v 0.555570 -0.831470 -4.294559
v 0.555570 -0.831470 5.000000
v 0.382683 -0.923879 -4.294559
v 0.382683 -0.923880 5.000000
v 0.195090 -0.980785 -4.294559
v 0.195090 -0.980785 5.000000
v 0.000000 -1.000000 -4.294559
v 0.000000 -1.000000 5.000000
v -0.195090 -0.980785 -4.294559
v -0.195090 -0.980785 5.000000
v -0.382683 -0.923879 -4.294559
v -0.382683 -0.923880 5.000000
v -0.555570 -0.831470 -4.294559
v -0.555570 -0.831470 5.000000
v -0.707107 -0.707107 -4.294559
v -0.707107 -0.707107 5.000000
v -0.831470 -0.555570 -4.294559
v -0.831470 -0.555570 5.000000
v -0.923880 -0.382683 -4.294559
v -0.923880 -0.382683 5.000000
v -0.980785 -0.195090 -4.294559
v -0.980785 -0.195090 5.000000
v -1.000000 0.000000 -4.294559
v -1.000000 -0.000000 5.000000
v -0.980785 0.195090 -4.294559
v -0.980785 0.195090 5.000000
v -0.923880 0.382683 -4.294559
v -0.923880 0.382683 5.000000
v -0.831470 0.555570 -4.294559
v -0.831470 0.555570 5.000000
v -0.707107 0.707107 -4.294559
v -0.707107 0.707107 5.000000
v -0.555570 0.831470 -4.294559
v -0.555570 0.831470 5.000000
v -0.382683 0.923880 -4.294559
v -0.382683 0.923879 5.000000
v -0.195090 0.980785 -4.294559
v -0.195090 0.980785 5.000000
v 0.000000 -0.000000 7.000000
vn 0.0980 0.9952 -0.0000
vn 0.2903 0.9569 -0.0000
vn 0.4714 0.8819 -0.0000
vn 0.6344 0.7730 -0.0000
vn 0.7730 0.6344 -0.0000
vn 0.8819 0.4714 -0.0000
vn 0.9569 0.2903 -0.0000
vn 0.9952 0.0980 -0.0000
vn 0.9952 -0.0980 -0.0000
vn 0.9569 -0.2903 -0.0000
vn 0.8819 -0.4714 -0.0000
vn 0.7730 -0.6344 -0.0000
vn 0.6344 -0.7730 -0.0000
vn 0.4714 -0.8819 -0.0000
vn 0.2903 -0.9569 -0.0000
vn 0.0980 -0.9952 -0.0000
vn -0.0980 -0.9952 -0.0000
vn -0.2903 -0.9569 -0.0000
vn -0.4714 -0.8819 -0.0000
vn -0.6344 -0.7730 -0.0000
vn -0.7730 -0.6344 -0.0000
vn -0.8819 -0.4714 -0.0000
vn -0.9569 -0.2903 -0.0000
vn -0.9952 -0.0980 -0.0000
vn -0.9952 0.0980 -0.0000
vn -0.9569 0.2903 -0.0000
vn -0.8819 0.4714 -0.0000
vn -0.7730 0.6344 -0.0000
vn -0.6344 0.7730 -0.0000
vn -0.4714 0.8819 -0.0000
vn 0.2599 0.8567 0.4455
vn -0.2903 0.9569 -0.0000
vn -0.0980 0.9952 -0.0000
vn -0.0000 -0.0000 -1.0000
vn -0.0878 -0.8910 0.4455
vn 0.0878 -0.8910 0.4455
vn -0.0878 0.8910 0.4455
vn 0.0878 0.8910 0.4455
vn -0.2599 -0.8567 0.4455
vn -0.4220 -0.7896 0.4455
vn 0.2599 -0.8567 0.4455
vn -0.2599 0.8567 0.4455
vn 0.4220 -0.7896 0.4455
vn -0.4220 0.7896 0.4455
vn 0.5680 -0.6921 0.4455
vn -0.5680 0.6921 0.4455
vn 0.6921 -0.5680 0.4455
vn -0.6921 0.5680 0.4455
vn 0.7896 -0.4220 0.4455
vn -0.7896 0.4220 0.4455
vn 0.8567 -0.2599 0.4455
vn -0.8567 0.2599 0.4455
vn 0.8910 -0.0878 0.4455
vn -0.8910 0.0878 0.4455
vn 0.8910 0.0878 0.4455
vn -0.8910 -0.0878 0.4455
vn 0.8567 0.2599 0.4455
vn -0.8567 -0.2599 0.4455
vn 0.7896 0.4220 0.4455
vn -0.7896 -0.4220 0.4455
vn 0.6921 0.5680 0.4455
vn -0.6921 -0.5680 0.4455
vn 0.5680 0.6921 0.4455
vn -0.5680 -0.6921 0.4455
vn 0.4220 0.7896 0.4455
vt 0.500000 0.000166
vt 0.000166 0.031406
vt 0.000166 0.000166
vt 0.500000 0.031406
vt 0.000166 0.062645
vt 0.500000 0.062645
vt 0.000166 0.093885
vt 0.500000 0.093885
vt 0.000166 0.125125
vt 0.500000 0.125125
vt 0.000166 0.156364
vt 0.500000 0.156364
vt 0.000166 0.187604
vt 0.500000 0.135604
vt 0.000166 0.166843
vt 0.000166 0.135604
vt 0.500000 0.166843
vt 0.000166 0.198083
vt 0.500000 0.198083
vt 0.000166 0.229323
vt 0.500000 0.229323
vt 0.000166 0.260562
vt 0.500000 0.260562
vt 0.000166 0.291802
vt 0.500000 0.291802
vt 0.000166 0.323041
vt 0.500000 0.323041
vt 0.000166 0.354281
vt 0.500000 0.354281
vt 0.000166 0.385521
vt 0.500000 0.385521
vt 0.000166 0.416760
vt 0.500000 0.416760
vt 0.000166 0.448000
vt 0.500000 0.448000
vt 0.000166 0.479240
vt 0.968000 0.521240
vt 0.530166 0.552479
vt 0.530166 0.521240
vt 0.968000 0.552479
vt 0.530166 0.583719
vt 0.968000 0.583719
vt 0.530166 0.614958
vt 0.968000 0.614958
vt 0.530166 0.646198
vt 0.968000 0.646198
vt 0.530166 0.677438
vt 0.968000 0.677438
vt 0.530166 0.708677
vt 0.968000 0.708677
vt 0.530166 0.739917
vt 0.968000 0.739917
vt 0.530166 0.771156
vt 0.968000 0.771156
vt 0.530166 0.802396
vt 0.968000 0.802396
vt 0.530166 0.833636
vt 0.968000 0.833636
vt 0.530166 0.864875
vt 0.968000 0.864875
vt 0.530166 0.896115
vt 0.968000 0.896115
vt 0.530166 0.927355
vt 0.362195 0.535340
vt 0.249097 0.746931
vt 0.318743 0.517342
vt 0.968000 0.927355
vt 0.530166 0.958594
vt 0.968000 0.958594
vt 0.530166 0.989834
vt 0.989862 0.219277
vt 0.727581 0.004028
vt 0.512332 0.266310
vt 0.096894 0.932392
vt 0.136000 0.958522
vt 0.063636 0.899135
vt 0.434558 0.594727
vt 0.401301 0.561470
vt 0.179452 0.976521
vt 0.225581 0.985696
vt 0.037507 0.860029
vt 0.460688 0.633834
vt 0.019508 0.816576
vt 0.478687 0.677286
vt 0.010332 0.770447
vt 0.487862 0.723415
vt 0.010332 0.723415
vt 0.487862 0.770447
vt 0.019508 0.677286
vt 0.478687 0.816576
vt 0.037507 0.633834
vt 0.460688 0.860029
vt 0.063637 0.594727
vt 0.434558 0.899135
vt 0.096894 0.561470
vt 0.401301 0.932392
vt 0.136000 0.535340
vt 0.362195 0.958522
vt 0.179452 0.517342
vt 0.318742 0.976521
vt 0.225581 0.508166
vt 0.272614 0.985696
vt 0.272614 0.508166
vt 0.500000 0.187604
vt 0.500000 0.479240
vt 0.968000 0.989834
vt 0.774614 0.481558
vt 0.820742 0.472383
vt 0.864195 0.454384
vt 0.903301 0.428254
vt 0.936558 0.394997
vt 0.962688 0.355891
vt 0.980687 0.312439
vt 0.989862 0.266310
vt 0.980687 0.173148
vt 0.962688 0.129696
vt 0.936558 0.090590
vt 0.903301 0.057333
vt 0.864195 0.031203
vt 0.820742 0.013204
vt 0.774614 0.004028
vt 0.681452 0.013204
vt 0.638000 0.031203
vt 0.598894 0.057333
vt 0.565636 0.090590
vt 0.539507 0.129696
vt 0.521508 0.173148
vt 0.512332 0.219277
vt 0.521508 0.312439
vt 0.539507 0.355891
vt 0.565637 0.394997
vt 0.598894 0.428254
vt 0.638000 0.454384
vt 0.681452 0.472383
vt 0.727581 0.481558
s 0
usemtl Material.005
f 2/1/1 3/2/1 1/3/1
f 4/4/2 5/5/2 3/2/2
f 6/6/3 7/7/3 5/5/3
f 8/8/4 9/9/4 7/7/4
f 10/10/5 11/11/5 9/9/5
f 12/12/6 13/13/6 11/11/6
f 14/14/7 15/15/7 13/16/7
f 16/17/8 17/18/8 15/15/8
f 18/19/9 19/20/9 17/18/9
f 20/21/10 21/22/10 19/20/10
f 22/23/11 23/24/11 21/22/11
f 24/25/12 25/26/12 23/24/12
f 26/27/13 27/28/13 25/26/13
f 28/29/14 29/30/14 27/28/14
f 30/31/15 31/32/15 29/30/15
f 32/33/16 33/34/16 31/32/16
f 34/35/17 35/36/17 33/34/17
f 36/37/18 37/38/18 35/39/18
f 38/40/19 39/41/19 37/38/19
f 40/42/20 41/43/20 39/41/20
f 42/44/21 43/45/21 41/43/21
f 44/46/22 45/47/22 43/45/22
f 46/48/23 47/49/23 45/47/23
f 48/50/24 49/51/24 47/49/24
f 50/52/25 51/53/25 49/51/25
f 52/54/26 53/55/26 51/53/26
f 54/56/27 55/57/27 53/55/27
f 56/58/28 57/59/28 55/57/28
f 58/60/29 59/61/29 57/59/29
f 60/62/30 61/63/30 59/61/30
f 4/64/31 65/65/31 6/66/31
f 62/67/32 63/68/32 61/63/32
f 64/69/33 1/70/33 63/68/33
f 15/71/34 31/72/34 47/73/34
f 34/74/35 65/65/35 36/75/35
f 32/76/36 65/65/36 34/74/36
f 64/77/37 65/65/37 2/78/37
f 65/65/38 4/64/38 2/78/38
f 36/75/39 65/65/39 38/79/39
f 38/79/40 65/65/40 40/80/40
f 30/81/41 65/65/41 32/76/41
f 62/82/42 65/65/42 64/77/42
f 28/83/43 65/65/43 30/81/43
f 60/84/44 65/65/44 62/82/44
f 26/85/45 65/65/45 28/83/45
f 58/86/46 65/65/46 60/84/46
f 24/87/47 65/65/47 26/85/47
f 56/88/48 65/65/48 58/86/48
f 22/89/49 65/65/49 24/87/49
f 54/90/50 65/65/50 56/88/50
f 20/91/51 65/65/51 22/89/51
f 52/92/52 65/65/52 54/90/52
f 18/93/53 65/65/53 20/91/53
f 50/94/54 65/65/54 52/92/54
f 16/95/55 65/65/55 18/93/55
f 48/96/56 65/65/56 50/94/56
f 14/97/57 65/65/57 16/95/57
f 46/98/58 65/65/58 48/96/58
f 12/99/59 65/65/59 14/97/59
f 44/100/60 65/65/60 46/98/60
f 10/101/61 65/65/61 12/99/61
f 42/102/62 65/65/62 44/100/62
f 8/103/63 65/65/63 10/101/63
f 40/80/64 65/65/64 42/102/64
f 6/66/65 65/65/65 8/103/65
f 2/1/1 4/4/1 3/2/1
f 4/4/2 6/6/2 5/5/2
f 6/6/3 8/8/3 7/7/3
f 8/8/4 10/10/4 9/9/4
f 10/10/5 12/12/5 11/11/5
f 12/12/6 14/104/6 13/13/6
f 14/14/7 16/17/7 15/15/7
f 16/17/8 18/19/8 17/18/8
f 18/19/9 20/21/9 19/20/9
f 20/21/10 22/23/10 21/22/10
f 22/23/11 24/25/11 23/24/11
f 24/25/12 26/27/12 25/26/12
f 26/27/13 28/29/13 27/28/13
f 28/29/14 30/31/14 29/30/14
f 30/31/15 32/33/15 31/32/15
f 32/33/16 34/35/16 33/34/16
f 34/35/17 36/105/17 35/36/17
f 36/37/18 38/40/18 37/38/18
f 38/40/19 40/42/19 39/41/19
f 40/42/20 42/44/20 41/43/20
f 42/44/21 44/46/21 43/45/21
f 44/46/22 46/48/22 45/47/22
f 46/48/23 48/50/23 47/49/23
f 48/50/24 50/52/24 49/51/24
f 50/52/25 52/54/25 51/53/25
f 52/54/26 54/56/26 53/55/26
f 54/56/27 56/58/27 55/57/27
f 56/58/28 58/60/28 57/59/28
f 58/60/29 60/62/29 59/61/29
f 60/62/30 62/67/30 61/63/30
f 62/67/32 64/69/32 63/68/32
f 64/69/33 2/106/33 1/70/33
f 63/107/34 1/108/34 3/109/34
f 3/109/34 5/110/34 63/107/34
f 5/110/34 7/111/34 63/107/34
f 7/111/34 9/112/34 11/113/34
f 11/113/34 13/114/34 7/111/34
f 13/114/34 15/71/34 7/111/34
f 15/71/34 17/115/34 19/116/34
f 19/116/34 21/117/34 23/118/34
f 23/118/34 25/119/34 27/120/34
f 27/120/34 29/121/34 31/72/34
f 31/72/34 33/122/34 35/123/34
f 35/123/34 37/124/34 31/72/34
f 37/124/34 39/125/34 31/72/34
f 39/125/34 41/126/34 43/127/34
f 43/127/34 45/128/34 47/73/34
f 47/73/34 49/129/34 51/130/34
f 51/130/34 53/131/34 55/132/34
f 55/132/34 57/133/34 59/134/34
f 59/134/34 61/135/34 63/107/34
f 15/71/34 19/116/34 31/72/34
f 19/116/34 23/118/34 31/72/34
f 23/118/34 27/120/34 31/72/34
f 39/125/34 43/127/34 47/73/34
f 47/73/34 51/130/34 63/107/34
f 51/130/34 55/132/34 63/107/34
f 55/132/34 59/134/34 63/107/34
f 63/107/34 7/111/34 15/71/34
f 31/72/34 39/125/34 47/73/34
f 63/107/34 15/71/34 47/73/34
o Cone
v 0.000000 1.000000 -5.000000
v 0.195090 0.980785 -5.000000
v 0.382683 0.923880 -5.000000
v 0.555570 0.831470 -5.000000
v 0.707107 0.707107 -5.000000
v 0.831470 0.555570 -5.000000
v 0.923880 0.382683 -5.000000
v 0.980785 0.195090 -5.000000
v 1.000000 0.000000 -5.000000
v 0.980785 -0.195090 -5.000000
v 0.923880 -0.382683 -5.000000
v 0.831470 -0.555570 -5.000000
v 0.707107 -0.707107 -5.000000
v 0.555570 -0.831470 -5.000000
v 0.382683 -0.923879 -5.000000
v 0.195090 -0.980785 -5.000000
v 0.000000 -1.000000 -5.000000
v -0.195090 -0.980785 -5.000000
v -0.382683 -0.923879 -5.000000
v -0.555570 -0.831470 -5.000000
v -0.707107 -0.707107 -5.000000
v -0.831470 -0.555570 -5.000000
v -0.923880 -0.382683 -5.000000
v -0.980785 -0.195090 -5.000000
v -1.000000 0.000000 -5.000000
v -0.980785 0.195090 -5.000000
v -0.923880 0.382683 -5.000000
v -0.831470 0.555570 -5.000000
v -0.707107 0.707107 -5.000000
v -0.555570 0.831470 -5.000000
v -0.382683 0.923880 -5.000000
v -0.195090 0.980785 -5.000000
v 0.000000 -0.000000 -1.000000
v 0.000000 0.000000 -4.618627
vn 0.0951 0.9657 0.2414
vn 0.2817 0.9286 0.2414
vn 0.4575 0.8558 0.2414
vn 0.6156 0.7501 0.2414
vn 0.7501 0.6156 0.2414
vn 0.8558 0.4575 0.2414
vn 0.9286 0.2817 0.2414
vn 0.9657 0.0951 0.2414
vn 0.9657 -0.0951 0.2414
vn 0.9286 -0.2817 0.2414
vn 0.8558 -0.4575 0.2414
vn 0.7501 -0.6156 0.2414
vn 0.6156 -0.7501 0.2414
vn 0.4575 -0.8558 0.2414
vn 0.2817 -0.9286 0.2414
vn 0.0951 -0.9657 0.2414
vn -0.0951 -0.9657 0.2414
vn -0.2817 -0.9286 0.2414
vn -0.4575 -0.8558 0.2414
vn -0.6156 -0.7501 0.2414
vn -0.7501 -0.6156 0.2414
vn -0.8558 -0.4575 0.2414
vn -0.9286 -0.2817 0.2414
vn -0.9657 -0.0951 0.2414
vn -0.9657 0.0951 0.2414
vn -0.9286 0.2817 0.2414
vn -0.8558 0.4575 0.2414
vn -0.7501 0.6156 0.2414
vn -0.6156 0.7501 0.2414
vn -0.4575 0.8558 0.2414
vn 0.0351 -0.3561 -0.9338
vn -0.2817 0.9286 0.2414
vn -0.0951 0.9657 0.2414
vn -0.0351 0.3561 -0.9338
vn -0.1039 0.3424 -0.9338
vn -0.1039 -0.3424 -0.9338
vn -0.0351 -0.3561 -0.9338
vn 0.1039 -0.3424 -0.9338
vn 0.1039 0.3424 -0.9338
vn 0.0351 0.3561 -0.9338
vn -0.1687 0.3156 -0.9338
vn 0.1687 -0.3156 -0.9338
vn -0.2270 0.2766 -0.9338
vn 0.2270 -0.2766 -0.9338
vn 0.2766 -0.2270 -0.9338
vn -0.2766 0.2270 -0.9338
vn -0.3156 0.1687 -0.9338
vn 0.3156 -0.1687 -0.9338
vn 0.3424 -0.1039 -0.9338
vn -0.3424 0.1039 -0.9338
vn -0.3561 0.0351 -0.9338
vn 0.3561 -0.0351 -0.9338
vn -0.3561 -0.0351 -0.9338
vn 0.3561 0.0351 -0.9338
vn -0.3424 -0.1039 -0.9338
vn 0.3424 0.1039 -0.9338
vn -0.3156 -0.1687 -0.9338
vn 0.3156 0.1687 -0.9338
vn -0.2766 -0.2270 -0.9338
vn 0.2766 0.2270 -0.9338
vn 0.2270 0.2766 -0.9338
vn -0.2270 -0.2766 -0.9338
vn -0.1687 -0.3156 -0.9338
vn 0.1687 0.3156 -0.9338
vt 0.750000 0.488000
vt 0.750000 0.248000
vt 0.796822 0.483388
vt 0.841844 0.469731
vt 0.883337 0.447553
vt 0.919706 0.417706
vt 0.949553 0.381337
vt 0.971731 0.339844
vt 0.985388 0.294822
vt 0.990000 0.248000
vt 0.985388 0.201178
vt 0.971731 0.156156
vt 0.949553 0.114663
vt 0.919706 0.078294
vt 0.883337 0.048447
vt 0.841844 0.026269
vt 0.796822 0.012612
vt 0.750000 0.008000
vt 0.703178 0.012612
vt 0.658156 0.026269
vt 0.616663 0.048447
vt 0.580294 0.078294
vt 0.550447 0.114663
vt 0.528269 0.156156
vt 0.514612 0.201178
vt 0.510000 0.248000
vt 0.514612 0.294822
vt 0.528269 0.339844
vt 0.550447 0.381337
vt 0.580294 0.417706
vt 0.616663 0.447553
vt 0.658156 0.469731
vt 0.750000 0.490000
vt 0.750000 0.250000
vt 0.703178 0.485388
vt 0.703178 0.483388
vt 0.750000 0.010000
vt 0.796822 0.014612
vt 0.841844 0.028269
vt 0.841844 0.471731
vt 0.796822 0.485388
vt 0.658156 0.471731
vt 0.658156 0.028269
vt 0.703178 0.014612
vt 0.883337 0.050447
vt 0.616663 0.449553
vt 0.919706 0.080294
vt 0.580294 0.419706
vt 0.550447 0.383337
vt 0.949553 0.116663
vt 0.971731 0.158156
vt 0.528269 0.341844
vt 0.514612 0.296822
vt 0.985388 0.203178
vt 0.990000 0.250000
vt 0.510000 0.250000
vt 0.985388 0.296822
vt 0.514612 0.203178
vt 0.971731 0.341844
vt 0.528269 0.158156
vt 0.949553 0.383337
vt 0.550447 0.116663
vt 0.919706 0.419706
vt 0.580294 0.080294
vt 0.616663 0.050447
vt 0.883337 0.449553
s 0
usemtl Material.006
f 66/136/66 98/137/66 67/138/66
f 67/138/67 98/137/67 68/139/67
f 68/139/68 98/137/68 69/140/68
f 69/140/69 98/137/69 70/141/69
f 70/141/70 98/137/70 71/142/70
f 71/142/71 98/137/71 72/143/71
f 72/143/72 98/137/72 73/144/72
f 73/144/73 98/137/73 74/145/73
f 74/145/74 98/137/74 75/146/74
f 75/146/75 98/137/75 76/147/75
f 76/147/76 98/137/76 77/148/76
f 77/148/77 98/137/77 78/149/77
f 78/149/78 98/137/78 79/150/78
f 79/150/79 98/137/79 80/151/79
f 80/151/80 98/137/80 81/152/80
f 81/152/81 98/137/81 82/153/81
f 82/153/82 98/137/82 83/154/82
f 83/154/83 98/137/83 84/155/83
f 84/155/84 98/137/84 85/156/84
f 85/156/85 98/137/85 86/157/85
f 86/157/86 98/137/86 87/158/86
f 87/158/87 98/137/87 88/159/87
f 88/159/88 98/137/88 89/160/88
f 89/160/89 98/137/89 90/161/89
f 90/161/90 98/137/90 91/162/90
f 91/162/91 98/137/91 92/163/91
f 92/163/92 98/137/92 93/164/92
f 93/164/93 98/137/93 94/165/93
f 94/165/94 98/137/94 95/166/94
f 95/166/95 98/137/95 96/167/95
f 66/168/96 99/169/96 97/170/96
f 96/167/97 98/137/97 97/171/97
f 97/171/98 98/137/98 66/136/98
f 82/172/99 99/169/99 81/173/99
f 81/173/100 99/169/100 80/174/100
f 68/175/101 99/169/101 67/176/101
f 67/176/102 99/169/102 66/168/102
f 97/170/103 99/169/103 96/177/103
f 84/178/104 99/169/104 83/179/104
f 83/179/105 99/169/105 82/172/105
f 80/174/106 99/169/106 79/180/106
f 96/177/107 99/169/107 95/181/107
f 79/180/108 99/169/108 78/182/108
f 95/181/109 99/169/109 94/183/109
f 94/183/110 99/169/110 93/184/110
f 78/182/111 99/169/111 77/185/111
f 77/185/112 99/169/112 76/186/112
f 93/184/113 99/169/113 92/187/113
f 92/187/114 99/169/114 91/188/114
f 76/186/115 99/169/115 75/189/115
f 75/189/116 99/169/116 74/190/116
f 91/188/117 99/169/117 90/191/117
f 74/190/118 99/169/118 73/192/118
f 90/191/119 99/169/119 89/193/119
f 73/192/120 99/169/120 72/194/120
f 89/193/121 99/169/121 88/195/121
f 72/194/122 99/169/122 71/196/122
f 88/195/123 99/169/123 87/197/123
f 71/196/124 99/169/124 70/198/124
f 87/197/125 99/169/125 86/199/125
f 86/199/126 99/169/126 85/200/126
f 70/198/127 99/169/127 69/201/127
f 69/201/128 99/169/128 68/175/128
f 85/200/129 99/169/129 84/178/129
